<svg height="123.3" viewBox="0 0 235.8 123.3" width="235.8" xmlns="http://www.w3.org/2000/svg">
    <defs>
        <style>.cls-1 {
            font-size: 12.48px;
        }

        .cls-1, .cls-2, .cls-3 {
            fill: #fff;
        }

        .cls-1, .cls-2 {
            font-family: Georgia-Bold, Georgia;
            font-weight: 700;
        }

        .cls-2 {
            font-size: 21.75px;
        }</style>
    </defs>
    <g data-name="Layer 3" id="Layer_3">
        <text class="cls-1" transform="translate(0 119.5) scale(1.26 1)">CREDIT CARD PROCESSING</text>
        <text class="cls-2" transform="translate(138.9 98.7) scale(1.12 1)">TRANS</text>
    </g>
    <g data-name="Layer 2" id="Layer_2">
        <path class="cls-3"
              d="M53.2,58.1s4.6-6.7,0-11.7C51,44,46.2,43,43.1,42.7a27.9,27.9,0,0,0-18.3,4.8,26.3,26.3,0,0,0-6.5,6.8c-4,5.7-4.7,14.4,2,18.3A20.8,20.8,0,0,0,28.7,75a23.9,23.9,0,0,0,18.7-7.4L46.8,66s-10.4,7.1-16.6,2.5c0,0-5.6-3.8-.7-10.6ZM38.5,46.8A4.3,4.3,0,0,1,43.3,48c.9,1.1,1.4,2.9-.3,5.7H31.3S34.1,48.2,38.5,46.8Z"
              transform="translate(-11.8 -15.5)"/>
        <path class="cls-3"
              d="M57.2,15.5l-1.1,4.7s8.2.6,15.3,14.4c0,0,14.2,26.7,14.2,34.2A199.8,199.8,0,0,1,44.2,99.4c-4.4,2.4-8.8,4.6-13.3,6.7s-8.3,4.1-12.7,3.6l-1,3.9H65l1.4-3.6a20.2,20.2,0,0,1-6.9-1.4c-6.1-2.9-1.9-8.4.9-11.8A89.6,89.6,0,0,1,75.1,83.3s9.6-7.4,14.7-8.9c2,3,4,6,5.8,9,3,4.8,7.2,10.8,7.6,16.6.5,8.3-9.4,9.7-15.5,9.7l-2.1,3.9h58.3l1.9-3.9c-.6,1.2-6.4-2.4-7.2-2.9-5.5-3.6-8.3-10-11-15.7s-4.9-12.3-7.4-18.4l-5.8-13.9,27.2-21.4s27.7-19.3,36.3-17.6l2.5-4.3H134.2l-1.5,4c.2-.4,3.9,0,4.4,0a9.9,9.9,0,0,1,4.6,1.7,5.4,5.4,0,0,1,2.4,4.9c-.7,5.2-6.8,9.4-10.6,12.2-16,11.4-22.4,14.1-22.4,14.1l-9.8-21.7a7.3,7.3,0,0,1,2.7-9.2c2-1.1,5-1.9,9.6-1.7l2-4.3Z"
              transform="translate(-11.8 -15.5)"/>
        <path class="cls-3"
              d="M208.7,44.9c-5-4.4-14-4.3-19.1.1-.6.5-1,1.5-1.8,1.7s-1.4.3-1.3-.1,1.2-3.7,1.2-3.7c-6.7,3.2-17.8,2.5-17.8,2.5l-1.8,3c6.3-.2,4.3,4,4.3,4L159.1,84.1c-2.1,5.8-7.4,4.7-7.4,4.7l-1.3,3.1h23.8l1.2-3.1c-5.2.8-4.7-2.4-4.7-2.4l6.5-16c1.7.6,2.5,2.4,4.1,3.2a11,11,0,0,0,5.1.8,26.4,26.4,0,0,0,9.8-2.6,29.3,29.3,0,0,0,7.4-4.8C218.8,53.3,208.7,44.9,208.7,44.9ZM192.4,65.5a14.6,14.6,0,0,1-7.3,3.5,6.1,6.1,0,0,1-3.5-.6c-.6-.4-2.6-2.1-2.2-3l5.2-13c1.6-4,10.3-6.7,13.2-3.1S196.2,62.1,192.4,65.5Z"
              transform="translate(-11.8 -15.5)"/>
        <path class="cls-3"
              d="M220.4,45.3l-1,2.3s4.5-.4,1.9,5.5L214.5,69s-1,1.6-5,2.3l-.9,2.7h21.6l.8-2.7s-4.8-.5-3.3-4.5l11-24.4S228,43.2,220.4,45.3Z"
              transform="translate(-11.8 -15.5)"/>
        <path class="cls-3"
              d="M228.8,35.8a3.7,3.7,0,0,1-.1-3c1-3.4,4.8-5.7,8.1-6.4s7.6,1.1,5.8,5.5a9.4,9.4,0,0,1-6.7,5.4C233.3,37.8,229.9,37.7,228.8,35.8Z"
              transform="translate(-11.8 -15.5)"/>
    </g>
</svg>